<svg width="127" height="21" fill="none" xmlns="http://www.w3.org/2000/svg"><g clip-path="url(#a)"><path fill-rule="evenodd" clip-rule="evenodd" d="m0 .592 1.92 2.17v15.882L.497 20.723l8.713.013-1.57-1.912-.164-5.72 8.401.046c2.547-.85 5.164-2.662 5.29-6.325-.04-3.55-2.202-5.827-4.712-6.28L0 .592Zm7.165 1.015v10.204l6.446.047c1.466-1.186 2.578-2.094 2.534-4.94-.021-2.321-.51-4.345-2.668-5.31H7.165ZM25.199.476l1.92 2.17V18.53l-1.423 2.08 8.713.012-1.57-1.912-.164-5.72h.035l9.001 7.696 7.47-.06-6.817-5.912h-5.692L34.666 13l6.41.034c2.547-.85 5.164-2.661 5.29-6.325C46.326 3.16 44.164.883 41.654.43L25.199.476Zm7.165 1.016v10.203l6.446.047c1.467-1.186 2.578-2.094 2.534-4.94-.021-2.321-.51-4.346-2.668-5.31h-6.312ZM56.374.453h7.512l9.779 18.191c.423 1.405 1.689 1.232 2.534 1.848H66.73l1.422-.446-.089-1.355-2.445-3.925-8.313.047-1.777 3.786c-.06.43-.52.758-.178 1.293l.667.646-4.09-.093 1.779-.553 6.711-14.175v-.97L57.583.955l-1.21-.502Zm1.458 13.064 3.453-6.553 3.594 6.516-7.047.037ZM107.174.493h7.512l9.78 18.191c.423 1.405 1.689 1.232 2.534 1.847h-9.469l1.423-.447-.089-1.354-2.445-3.924-8.312.047-1.778 3.785c-.06.432-.519.758-.179 1.293l.667.647-4.089-.093 1.779-.554 6.711-14.174v-.97L108.384.994l-1.21-.502Zm1.459 13.064 3.453-6.553 3.595 6.516-7.048.037ZM78.797.264 92.18.338c4.31 1.012 7.052 3.651 7.902 8.255l-.036 3.591c-.786 4.103-3.36 6.934-7.901 8.367l-13.42.038-.001-.435c2.04-.155 2.203-.388 2.208-1.602V2.19C80.91 1.29 80.73.732 78.762.67l.035-.407Zm7.607 1.4-.013 17.704c1.765.006 3.297.172 4.162-.27 1.96-.898 2.87-2.276 2.954-3.571L93.46 5.073c0-1.672-1.81-2.853-2.856-3.16-.747-.278-2.239-.29-4.2-.249Z" fill="#fff" stroke="#fff" stroke-width=".718" stroke-miterlimit="2.613"/></g><defs><clipPath id="a"><path fill="#fff" d="M0 0h127v21H0z"/></clipPath></defs></svg>